<?xml version="1.0" encoding="UTF-8" standalone="no"?>
<!-- Created with Inkscape (http://www.inkscape.org/) -->

<svg
   xmlns:dc="http://purl.org/dc/elements/1.1/"
   xmlns:cc="http://creativecommons.org/ns#"
   xmlns:rdf="http://www.w3.org/1999/02/22-rdf-syntax-ns#"
   xmlns:svg="http://www.w3.org/2000/svg"
   xmlns="http://www.w3.org/2000/svg"
   xmlns:sodipodi="http://sodipodi.sourceforge.net/DTD/sodipodi-0.dtd"
   xmlns:inkscape="http://www.inkscape.org/namespaces/inkscape"
   width="550.97223"
   height="542.44177"
   id="svg2"
   version="1.1"
   inkscape:version="0.48.4 r9939"
   sodipodi:docname="point_add.svg">
  <sodipodi:namedview
     id="base"
     pagecolor="#ffffff"
     bordercolor="#666666"
     borderopacity="1.0"
     inkscape:pageopacity="0.0"
     inkscape:pageshadow="2"
     inkscape:zoom="0.86303289"
     inkscape:cx="300.27286"
     inkscape:cy="266.46801"
     inkscape:document-units="px"
     inkscape:current-layer="layer1"
     showgrid="false"
     inkscape:window-width="1112"
     inkscape:window-height="744"
     inkscape:window-x="259"
     inkscape:window-y="0"
     inkscape:window-maximized="0"
     fit-margin-top="0"
     fit-margin-left="0"
     fit-margin-right="0"
     fit-margin-bottom="0" />
  <defs
     id="defs4" />
  <metadata
     id="metadata7">
    <rdf:RDF>
      <cc:Work
         rdf:about="">
        <dc:format>image/svg+xml</dc:format>
        <dc:type
           rdf:resource="http://purl.org/dc/dcmitype/StillImage" />
        <dc:title />
      </cc:Work>
    </rdf:RDF>
  </metadata>
  <g
     transform="translate(-94.313262,-125.27261)"
     id="layer1"
     inkscape:groupmode="layer"
     inkscape:label="Layer 1">
    <g
       id="g4773"
       style="stroke-width:2;stroke-miterlimit:4;stroke-dasharray:none">
      <path
         transform="translate(94.313262,125.27261)"
         inkscape:connector-curvature="0"
         id="path4747"
         d="m 0,272.73104 c 550.53314,0 550.53314,1.01016 550.53314,1.01016"
         style="fill:none;stroke:#000000;stroke-width:2;stroke-linecap:butt;stroke-linejoin:miter;stroke-opacity:1;stroke-miterlimit:4;stroke-dasharray:none" />
      <path
         inkscape:connector-curvature="0"
         id="path4747-1"
         d="m 371.13661,117.76819 c 0,550.53313 -1.01016,550.53313 -1.01016,550.53313"
         style="fill:none;stroke:#000000;stroke-width:2;stroke-linecap:butt;stroke-linejoin:miter;stroke-opacity:1;stroke-miterlimit:4;stroke-dasharray:none" />
    </g>
    <path
       inkscape:connector-curvature="0"
       id="path3260"
       title="-1*sqrt(x*x*x - 7x)"
       d=""
       transform="translate(133.78572,129.00504)"
       style="fill:#ffffff;fill-opacity:1;stroke:#000000;stroke-opacity:1" />
    <path
       inkscape:connector-curvature="0"
       style="fill:#ffffff;fill-opacity:1;stroke:#000000;stroke-opacity:1"
       transform="translate(133.78572,129.00504)"
       d=""
       title="sqrt(x*x*x - 7x)"
       id="path3274" />
    <path
       inkscape:connector-curvature="0"
       id="path3290"
       title="sqrt(x*x*x - 7x)"
       d=""
       transform="translate(133.78572,129.00504)"
       style="fill:#ffffff;fill-opacity:1;stroke:#000000;stroke-opacity:1" />
    <path
       inkscape:connector-curvature="0"
       style="fill:#ffffff;fill-opacity:1;stroke:#000000;stroke-opacity:1"
       transform="translate(133.78572,129.00504)"
       d=""
       title="x*x*x - 7x"
       id="path3308" />
    <g
       id="g4767"
       style="fill:none;stroke:#0091ff;stroke-opacity:1;stroke-width:5;stroke-miterlimit:4;stroke-dasharray:none">
      <path
         style="fill:none;fill-opacity:1;stroke:#0091ff;stroke-width:5;stroke-opacity:1;stroke-miterlimit:4;stroke-dasharray:none"
         d=" M 507.15717 396.493485 C 507.62139862 394.851252 508.085627239 357.824523623 508.549855859 356.165702411 C 509.014084478 354.506881198 509.478313098 340.708515257 509.942541717 339.033105833 C 510.406770337 337.357696409 510.870998956 327.287064269 511.335227576 325.595066632 C 511.799456195 323.903068996 512.263684815 315.730911899 512.727913434 314.022326051 C 513.192142054 312.313740202 513.656370673 305.337527936 514.120599293 303.612353875 C 514.584827912 301.887179815 515.049056532 295.749572862 515.513285152 294.007810589 C 515.977513771 292.266048316 516.441742391 286.75650271 516.90597101 284.998152225 C 517.37019963 283.23980174 517.834428249 278.222256814 518.298656869 276.447318117 C 518.762885488 274.67237942 519.227114108 270.053102198 519.691342727 268.261575289 C 520.155571347 266.47004838 520.619799966 262.181355353 521.084028586 260.373240231 C 521.548257205 258.56512511 522.012485825 254.556344865 522.476714444 252.731641532 C 522.940943064 250.906938198 523.405171684 247.139033141 523.869400303 245.297741596 C 524.333628923 243.45645005 524.797857542 239.898636965 525.262086162 238.040757207 C 525.726314781 236.18287745 526.190543401 232.810409039 526.65477202 230.935941069 C 527.11900064 229.061473099 527.583229259 225.85412822 528.047457879 223.963072038 C 528.511686498 222.072015857 528.975915118 219.013040523 529.440143737 217.10539613 C 529.904372357 215.197751736 530.368600976 212.273096951 530.832829596 210.348864345 C 531.297058215 208.424631739 531.761286835 205.622392653 532.225515455 203.681571835 C 532.689744074 201.740751017 533.153972694 199.050746193 533.618201313 197.093337163 C 534.082429933 195.135928132 534.546658552 192.549378503 535.010887172 190.575381261 C 535.475115791 188.601384018 535.939344411 186.110664212 536.40357303 184.120078758 C 536.86780165 182.129493303 537.332030269 179.727936412 537.796258889 177.720762746 C 538.260487508 175.713589079 538.724716128 173.395331533 539.188944747 171.371569654 C 539.653173367 169.347807775 540.117401987 167.107664727 540.581630606 165.067314636 C 541.045859226 163.026964545 541.510087845 160.86032878 541.974316465 158.803390477 C 542.438545084 156.746452174 542.902773704 154.649211356 543.367002323 152.575684841 C 543.831230943 150.502158326 544.295459562 148.470626692 544.759688182 146.380511964 C 545.223916801 144.290397237 545.688145421 142.321258794 546.15237404 140.214555855 C 546.61660266 138.107852916 547.080831279 136.198113869 547.545059899 134.074822717 C 548.009288519 131.951531566 548.473517138 130.098480218 548.937745758 127.958600854 C 549.401974377 125.81872149 549.866202997 124.01989424 550.330431616 121.863426664 C 550.794660236 119.706959089 551.258888855 117.960111436 551.723117475 115.787055648 C 552.187346094 113.61399986 552.651574714 111.917081554 553.115803333 109.727437554 C 553.580031953 107.537793554 554.044260572 105.888927182 554.508489192 103.68269497 C 554.972717811 101.476462758 555.436946431 99.8739252297 555.901175051 97.6511048054 C 556.36540367 95.4282843812 556.82963229 93.8704908288 557.293860909 91.6310821924 C 557.758089529 89.3916735561 558.222318148 87.8771632922 558.686546768 85.6211664437 C 559.150775387 83.3651695952 559.615004007 81.8925938149 560.079232626 79.6200087542 C 560.543461246 77.3474236936 561.007689865 75.9155346648 561.471918485 73.6263613921 C 561.936147104 71.3371881194 562.400375724 69.9448296502 562.864604343 67.6390681654 C 563.328832963 65.3333066805 563.793061582 63.9794056854 564.257290202 61.6570559884 C 564.721518822 59.3347062914 565.185747441 58.0182653064 565.649976061 55.6793273973 C 566.11420468 53.3403894882 566.5784333 52.0604800105 567.042661919 49.7049538892 C 567.506890539 47.349427768 567.971119158 46.1051843112 568.435347778 43.7330699778 C 568.899576397 41.3609556445 569.363805017 40.1515704201 569.828033636 37.7628678746 C 570.292262256 35.3741653292 570.756490875 34.1988834758 571.220719495 31.7935927182 C 571.684948114 29.3883019607 572.149176734 28.2464172545 572.613405354 25.8245382848 C 573.077633973 23.4026593151 573.541862593 22.2935103046 574.006091212 19.8550431227 C 574.470319832 17.4165759409 574.934548451 16.3395424555 575.398777071 13.8844870615 C 575.86300569 11.4294316676 576.32723431 10.3839316588 576.791462929 7.91228805275 C 577.255691549 5.44064444669 577.719920168 4.42613112343 578.184148788 1.93789930525 C 578.648377407 -0.550332512932 579.112606027 -1.53437328716 579.576834646 -4.03919331746 C 580.041063266 -6.54401334777 580.505291886 -7.49806542363 580.969520505 -10.019473666 C 581.433749125 -12.5408819085 581.897977744 -13.4654010106 582.362206364 -16.0033974652 C 582.826434983 -18.5413939197 583.290663603 -19.4368096195 583.754892222 -21.9913942861 C 584.219120842 -24.5459789528 584.683349461 -25.4126964725 585.147578081 -27.9838693513 C 585.6118067 -30.5550422301 586.07603532 -31.3934440967 586.540263939 -33.9812051877 C 587.004492559 -36.5689662786 587.468721178 -37.3794138407 587.932949798 -39.9837631437 C 588.397178418 -42.5881124467 588.861407037 -43.3709472686 589.325635657 -45.9918847838 C 589.789864276 -48.6128222989 590.254092896 -49.3683674436 590.718321515 -52.0058931709 C 591.182550135 -54.6434188982 591.646778754 -55.3719801096 592.111007374 -58.026094049 C 592.575235993 -60.6802079884 593.039464613 -61.3820747821 593.503693232 -64.0527769336 C 593.967921852 -66.7234790851 594.432150471 -67.3989257559 594.896379091 -70.0862161196 C 595.36060771 -72.7735064832 595.82483633 -73.4227930375 596.289064949 -76.1266716133 C 596.753293569 -78.830550189 597.217522189 -79.4539232076 597.681750808 -82.1743899955 C 598.145979428 -84.8948567834 598.610208047 -85.4925502219 599.074436667 -88.2296052219 C 599.538665286 -90.9666602219 600.002893906 -91.5388961536 600.467122525 -94.2925393657 C 600.931351145 -97.0461825778 601.395579764 -97.5931718833 601.859808384 -100.363403308 C 602.324037003 -103.133634732 602.788265623 -103.655577741 603.252494242 -106.442397378 C 603.716722862 -109.229217014 604.180951481 -109.726304104 604.645180101 -112.529711953 C 605.109408721 -115.333119801 605.57363734 -115.805531954 606.03786596 -118.625528015 C 606.502094579 -121.445524076 606.966323199 -121.893433395 607.430551818 -124.730017668 C 607.894780438 -127.566601941 608.359009057 -127.99017214 608.823237677 -130.843344625 C 609.287466296 -133.696517109 609.751694916 -134.095903963 610.215923535 -136.96566466 C 610.680152155 -139.835425357 611.144380774 -140.210777125 611.608609394 -143.097126034 C 612.072838013 -145.983474943 612.537066633 -146.334932769 613.001295253 -149.23786989 C 613.465523872 -152.140807011 613.929752492 -152.468505292 614.393981111 -155.388030625 C 614.858209731 -158.307555959 615.32243835 -158.611622694 615.78666697 -161.54773624 C 616.250895589 -164.483849785 616.715124209 -164.764406906 617.179352828 -167.717108664 C 617.643581448 -170.669810421 618.107810067 -170.926974096 618.572038687 -173.896264066 C 619.036267306 -176.865554035 619.500495926 -177.099434957 619.964724545 -180.085313139 C 620.428953165 -183.071191321 620.893181785 -183.281894981 621.357410404 -186.284361375 C 621.821639024 -189.286827769 622.285867643 -189.474454713 622.750096263 -192.493509319 C 623.214324882 -195.512563925 623.678553502 -195.677209991 624.142782121 -198.712852809 C 624.607010741 -201.748495628 625.07123936 -201.890252174 625.53546798 -204.942483205 C 625.999696599 -207.994714235 626.463925219 -208.113668356 626.928153838 -211.182487599 C 627.392382458 -214.251306841 627.856611077 -214.347541566 628.320839697 -217.432949021 C 628.785068316 -220.518356475 629.249296936 -220.59195096 629.713525556 -223.693946627 C 630.177754175 -226.795942293 630.641982795 -226.846972001 631.106211414 -229.96555588 C 631.570440034 -233.084139758 632.034668653 -233.112676628 632.498897273 -236.247848719 C 632.963125892 -239.38302081 633.427354512 -239.389133419 633.891583131 -242.540893722 C 634.355811751 -245.692654025 634.82004037 -245.67640774 635.28426899 -248.844756255 C 635.748497609 -252.01310477 636.212726229 -251.974561893 636.676954848 -255.15949862 C 637.141183468 -258.344435347 637.605412088 -258.283655249 638.069640707 -261.485180188 C 638.533869327 -264.686705128 638.998097946 -264.60374438 639.462326566 -267.821857532 C 639.926555185 -271.039970683 640.390783805 -270.934883182 640.855012424 -274.169584546 C 641.319241044 -277.40428591 641.783469663 -277.277122989 642.247698283 -280.528412565 C 642.711926902 -283.77970214 643.176155522 -283.630512685 643.640384141 -286.898390473 C 644.104612761 -290.166268261 644.56884138 -289.995098809 645.03307 -293.279564809"
         title="sqrt(x*x*x - 9*x)"
         id="path4614" />
      <path
         style="fill:none;fill-opacity:1;stroke:#0091ff;stroke-width:5;stroke-opacity:1;stroke-miterlimit:4;stroke-dasharray:none"
         d=" M 507.15717 396.493485 C 507.62139862 394.851252 508.085627239 438.480088802 508.549855859 436.821267589 C 509.014084478 435.162446377 509.478313098 455.629273591 509.942541717 453.953864167 C 510.406770337 452.278454743 510.870998956 469.083901004 511.335227576 467.391903368 C 511.799456195 465.699905731 512.263684815 480.673229798 512.727913434 478.964643949 C 513.192142054 477.256058101 513.656370673 491.099790185 514.120599293 489.374616125 C 514.584827912 487.649442064 515.049056532 500.720921684 515.513285152 498.979159411 C 515.977513771 497.237397138 516.441742391 509.74716826 516.90597101 507.988817775 C 517.37019963 506.23046729 517.834428249 518.31459058 518.298656869 516.539651883 C 518.762885488 514.764713186 519.227114108 526.51692162 519.691342727 524.725394711 C 520.155571347 522.933867802 520.619799966 534.42184489 521.084028586 532.613729769 C 521.548257205 530.805614647 522.012485825 542.080031802 522.476714444 540.255328468 C 522.940943064 538.430625135 523.405171684 549.53051995 523.869400303 547.689228404 C 524.333628923 545.847936859 524.797857542 556.80409255 525.262086162 554.946212793 C 525.726314781 553.088333035 526.190543401 563.925496901 526.65477202 562.051028931 C 527.11900064 560.176560961 527.583229259 570.914954143 528.047457879 569.023897962 C 528.511686498 567.13284178 528.975915118 577.789218264 529.440143737 575.88157387 C 529.904372357 573.973929477 530.368600976 584.562338261 530.832829596 582.638105655 C 531.297058215 580.713873049 531.761286835 591.246218983 532.225515455 589.305398165 C 532.689744074 587.364577347 533.153972694 597.851041868 533.618201313 595.893632837 C 534.082429933 593.936223807 534.546658552 604.385585982 535.010887172 602.411588739 C 535.475115791 600.437591497 535.939344411 610.857476697 536.40357303 608.866891242 C 536.86780165 606.876305788 537.332030269 617.273380921 537.796258889 615.266207254 C 538.260487508 613.259033588 538.724716128 623.639162225 539.188944747 621.615400346 C 539.653173367 619.591638467 540.117401987 629.960005455 540.581630606 627.919655364 C 541.045859226 625.879305273 541.510087845 636.240517826 541.974316465 634.183579523 C 542.438545084 632.12664122 542.902773704 642.484811674 543.367002323 640.411285159 C 543.831230943 638.337758644 544.295459562 648.696572763 544.759688182 646.606458036 C 545.223916801 644.516343308 545.688145421 654.879117084 546.15237404 652.772414145 C 546.61660266 650.665711206 547.080831279 661.035438434 547.545059899 658.912147283 C 548.009288519 656.788856131 548.473517138 667.16824851 548.937745758 665.028369146 C 549.401974377 662.888489782 549.866202997 673.280010911 550.330431616 671.123543336 C 550.794660236 668.96707576 551.258888855 679.37297014 551.723117475 677.199914352 C 552.187346094 675.026858564 552.651574714 685.449176446 553.115803333 683.259532446 C 553.580031953 681.069888446 554.044260572 691.510507242 554.508489192 689.30427503 C 554.972717811 687.098042818 555.436946431 697.558685619 555.901175051 695.335865195 C 556.36540367 693.11304477 556.82963229 703.595296444 557.293860909 701.355887808 C 557.758089529 699.116479171 558.222318148 709.621800405 558.686546768 707.365803556 C 559.150775387 705.109806708 559.615004007 715.639546306 560.079232626 713.366961246 C 560.543461246 711.094376185 561.007689865 721.649781881 561.471918485 719.360608608 C 561.936147104 717.071435335 562.400375724 727.653663319 562.864604343 725.347901835 C 563.328832963 723.04214035 563.793061582 733.652263709 564.257290202 731.329914012 C 564.721518822 729.007564315 565.185747441 739.646580512 565.649976061 737.307642603 C 566.11420468 734.968704694 566.5784333 745.637542232 567.042661919 743.282016111 C 567.506890539 740.92648999 567.971119158 751.626014355 568.435347778 749.253900022 C 568.899576397 746.881785689 569.363805017 757.612804671 569.828033636 755.224102125 C 570.292262256 752.83539958 570.756490875 763.598668039 571.220719495 761.193377282 C 571.684948114 758.788086524 572.149176734 769.584310685 572.613405354 767.162431715 C 573.077633973 764.740552745 573.541862593 775.570394059 574.006091212 773.131926877 C 574.470319832 770.693459695 574.934548451 781.557538332 575.398777071 779.102482938 C 575.86300569 776.647427545 576.32723431 787.546325553 576.791462929 785.074681947 C 577.255691549 782.603038341 577.719920168 793.537302513 578.184148788 791.049070695 C 578.648377407 788.560838877 579.112606027 799.530983348 579.576834646 797.026163317 C 580.041063266 794.521343287 580.505291886 805.527851908 580.969520505 803.006443666 C 581.433749125 800.485035424 581.897977744 811.52836392 582.362206364 808.990367465 C 582.826434983 806.452371011 583.290663603 817.532948953 583.754892222 814.978364286 C 584.219120842 812.423779619 584.683349461 823.54201223 585.147578081 820.970839351 C 585.6118067 818.399666473 586.07603532 829.555936279 586.540263939 826.968175188 C 587.004492559 824.380414097 587.468721178 835.575082447 587.932949798 832.970733144 C 588.397178418 830.366383841 588.861407037 841.599792299 589.325635657 838.978854784 C 589.789864276 836.357917269 590.254092896 847.630388898 590.718321515 844.992863171 C 591.182550135 842.355337444 591.646778754 853.667177988 592.111007374 851.013064049 C 592.575235993 848.35895011 593.039464613 859.710449085 593.503693232 857.039746934 C 593.967921852 854.369044782 594.432150471 865.760476483 594.896379091 863.07318612 C 595.36060771 860.385895756 595.82483633 871.817520189 596.289064949 869.113641613 C 596.753293569 866.409763037 597.217522189 877.881826783 597.681750808 875.161359995 C 598.145979428 872.440893208 598.610208047 883.953630222 599.074436667 881.216575222 C 599.538665286 878.479520222 600.002893906 890.033152578 600.467122525 887.279509366 C 600.931351145 884.525866154 601.395579764 896.120604732 601.859808384 893.350373308 C 602.324037003 890.580141883 602.788265623 902.216187014 603.252494242 899.429367378 C 603.716722862 896.642547741 604.180951481 908.320089801 604.645180101 905.516681953 C 605.109408721 902.713274104 605.57363734 914.432494076 606.03786596 911.612498015 C 606.502094579 908.792501954 606.966323199 920.553571941 607.430551818 917.716987668 C 607.894780438 914.880403395 608.359009057 926.683487109 608.823237677 923.830314625 C 609.287466296 920.97714214 609.751694916 932.822395357 610.215923535 929.95263466 C 610.680152155 927.082873963 611.144380774 938.970444943 611.608609394 936.084096034 C 612.072838013 933.197747125 612.537066633 945.127777011 613.001295253 942.22483989 C 613.465523872 939.321902769 613.929752492 951.294525959 614.393981111 948.375000625 C 614.858209731 945.455475292 615.32243835 957.470819785 615.78666697 954.53470624 C 616.250895589 951.598592694 616.715124209 963.656780421 617.179352828 960.704078664 C 617.643581448 957.751376906 618.107810067 969.852524035 618.572038687 966.883234066 C 619.036267306 963.913944096 619.500495926 976.058161321 619.964724545 973.072283139 C 620.428953165 970.086404957 620.893181785 982.273797769 621.357410404 979.271331375 C 621.821639024 976.268864981 622.285867643 988.499533925 622.750096263 985.480479319 C 623.214324882 982.461424713 623.678553502 994.735465628 624.142782121 991.699822809 C 624.607010741 988.664179991 625.07123936 1000.98168424 625.53546798 997.929453205 C 625.999696599 994.877222174 626.463925219 1007.23827684 626.928153838 1004.1694576 C 627.392382458 1001.10063836 627.856611077 1013.50532648 628.320839697 1010.41991902 C 628.785068316 1007.33451157 629.249296936 1019.78291229 629.713525556 1016.68091663 C 630.177754175 1013.57892096 630.641982795 1026.07110976 631.106211414 1022.95252588 C 631.570440034 1019.833942 632.034668653 1032.36999081 632.498897273 1029.23481872 C 632.963125892 1026.09964663 633.427354512 1038.67962402 633.891583131 1035.52786372 C 634.355811751 1032.37610342 634.82004037 1045.00007477 635.28426899 1041.83172626 C 635.748497609 1038.66337774 636.212726229 1051.33140535 636.676954848 1048.14646862 C 637.141183468 1044.96153189 637.605412088 1057.67367513 638.069640707 1054.47215019 C 638.533869327 1051.27062525 638.998097946 1064.02694068 639.462326566 1060.80882753 C 639.926555185 1057.59071438 640.390783805 1070.39125591 640.855012424 1067.15655455 C 641.319241044 1063.92185318 641.783469663 1076.76667214 642.247698283 1073.51538256 C 642.711926902 1070.26409299 643.176155522 1083.15323826 643.640384141 1079.88536047 C 644.104612761 1076.61748268 644.56884138 1089.55100081 645.03307 1086.26653481"
         title="sqrt(x*x*x - 9*x)*-1"
         id="path4668" />
      <path
         id="path4698"
         title="sqrt(x*x*x - 9*x)*-1"
         d=" M 232.38298 396.493485 C 232.84720862 398.135718 233.311437239 434.589186142 233.775665859 436.21483093 C 234.239894478 437.840475718 234.704123098 450.629529283 235.168351717 452.238585858 C 235.632580337 453.847642434 236.096808956 462.64821726 236.561037576 464.240685624 C 237.025266195 465.833153988 237.489494815 472.537038248 237.953723434 474.1129184 C 238.417952054 475.688798551 238.882180673 481.034636539 239.346409293 482.593928478 C 239.810637912 484.153220418 240.274866532 488.522696508 240.739095152 490.065400235 C 241.203323771 491.608103963 241.667552391 495.229613889 242.13178101 496.755729405 C 242.59600963 498.28184492 243.060238249 501.305261839 243.524466869 502.814789142 C 243.988695488 504.324316445 244.452924108 506.854467862 244.917152727 508.347406952 C 245.381381347 509.840346043 245.845609966 511.954076225 246.309838586 513.430427104 C 246.774067205 514.906777982 247.238295825 516.662484485 247.702524444 518.122247152 C 248.166753064 519.582009819 248.630981684 521.025356761 249.095210303 522.468531216 C 249.559438923 523.91170567 250.023667542 525.079237551 250.487896162 526.505823794 C 250.952124781 527.932410036 251.416353401 528.853939769 251.88058202 530.263937799 C 252.34481064 531.673935829 252.809039259 532.374180643 253.273267879 533.767590461 C 253.737496498 535.16100028 254.201725118 535.660736744 254.665953737 537.03755835 C 255.130182357 538.414379956 255.594410976 538.731280714 256.058639596 540.091514108 C 256.522868215 541.451747502 256.987096835 541.601000997 257.451325455 542.944646178 C 257.915554074 544.28829136 258.379782694 544.283069775 258.844011313 545.610126744 C 259.308239933 546.937183714 259.772468552 546.789002332 260.236697172 548.09947109 C 260.700925791 549.409939847 261.165154411 549.128937204 261.62938303 550.422817749 C 262.09361165 551.716698295 262.557840269 551.311857511 263.022068889 552.589149844 C 263.486297508 553.866442177 263.950526128 553.345767937 264.414754747 554.606472058 C 264.878983367 555.867176179 265.343211987 555.237837773 265.807440606 556.481953682 C 266.271669226 557.726069591 266.735897845 556.994517671 267.200126465 558.222045368 C 267.664355084 559.449573065 268.128583704 558.621635781 268.592812323 559.832575266 C 269.057040943 561.043514751 269.521269562 560.124477571 269.985498182 561.318828844 C 270.449726801 562.513180117 270.913955421 561.507852566 271.37818404 562.685615627 C 271.84241266 563.863378688 272.306641279 562.776150548 272.770869899 563.937325397 C 273.235098519 565.098500245 273.699327138 563.933389161 274.163555758 565.077975797 C 274.627784377 566.222562434 275.092012997 564.983254469 275.556241616 566.111252893 C 276.020470236 567.239251317 276.484698855 565.929135684 276.948927475 567.040545896 C 277.413156094 568.151956109 277.877384714 566.774155047 278.341613333 567.868977047 C 278.805841953 568.963799047 279.270070572 567.521193636 279.734299192 568.599427423 C 280.198527811 569.677661211 280.662756431 568.172913754 281.126985051 569.23455933 C 281.59121367 570.296204906 282.05544229 568.731778408 282.519670909 569.776835772 C 282.983899529 570.821893136 283.448128148 569.2000683 283.912356768 570.228537452 C 284.376585387 571.257006603 284.840814007 569.579896695 285.305042626 570.591777635 C 285.769271246 571.603658574 286.233499865 569.87322245 286.697728485 570.868515178 C 287.161957104 571.863807905 287.626185724 570.081861444 288.090414343 571.060565959 C 288.554642963 572.039270474 289.018871582 570.207496614 289.483100202 571.169612917 C 289.947328822 572.13172922 290.411557441 570.251686776 290.875786061 571.197214867 C 291.34001468 572.142742957 291.8042433 570.215874348 292.268471919 571.144814227 C 292.732700539 572.073754105 293.196929158 570.101392126 293.661157778 571.013743792 C 294.125386397 571.926095459 294.589615017 569.909469184 295.053843636 570.805232639 C 295.518072256 571.700996093 295.982300875 569.641236006 296.446529495 570.520411248 C 296.910758114 571.399586491 297.374986734 569.297728894 297.839215354 570.160315924 C 298.303443973 571.022902954 298.767672593 568.879893736 299.231901212 569.725892554 C 299.696129832 570.571891373 300.160358451 568.388589162 300.624587071 569.217999768 C 301.08881569 570.047410374 301.55304431 567.824589127 302.017272929 568.637411521 C 302.481501549 569.450233915 302.945730168 567.188584962 303.409958788 567.984819144 C 303.874187407 568.781053326 304.338416027 566.481186899 304.802644646 567.260832869 C 305.266873266 568.040478839 305.731101886 565.702925088 306.195330505 566.465982845 C 306.659559125 567.229040603 307.123787744 564.854250114 307.588016364 565.600719659 C 308.052244983 566.347189205 308.516473603 563.935533012 308.980702222 564.665414345 C 309.444930842 565.395295679 309.909159461 562.947064768 310.373388081 563.660357889 C 310.8376167 564.37365101 311.30184532 561.889055289 311.766073939 562.585760198 C 312.230302559 563.282465107 312.694531178 560.761631819 313.158759798 561.441748516 C 313.622988418 562.121865213 314.087217037 559.564836769 314.551445657 560.228365254 C 315.015674276 560.891893739 315.479902896 558.298624911 315.944131515 558.945565184 C 316.408360135 559.592505457 316.872588754 556.96285988 317.336817374 557.593211941 C 317.801045993 558.223564002 318.265274613 555.557309922 318.729503232 556.171073771 C 319.193731852 556.784837619 319.657960471 554.081642793 320.122189091 554.67881843 C 320.58641771 555.275994066 321.05064633 552.535419715 321.514874949 553.116007139 C 321.979103569 553.696594564 322.443332189 550.918088251 322.907560808 551.482087463 C 323.371789428 552.046086675 323.836018047 549.228973958 324.300246667 549.776384958 C 324.764475286 550.323795958 325.228703906 547.467270624 325.692932525 547.998093412 C 326.157161145 548.5289162 326.621389764 545.632028869 327.085618384 546.146263444 C 327.549847003 546.66049802 328.014075623 543.722142822 328.478304242 544.219789186 C 328.942532862 544.717435549 329.406761481 541.736334556 329.870990101 542.217392707 C 330.335218721 542.698450859 330.79944734 539.67313584 331.26367596 540.137605779 C 331.727904579 540.602075719 332.192133199 537.53086671 332.656361818 537.978748437 C 333.120590438 538.426630164 333.584819057 535.307610205 334.049047677 535.73890372 C 334.513276296 536.170197235 334.977504916 533.001182463 335.441733535 533.415887766 C 335.905962155 533.830593069 336.370190774 530.609097151 336.834419394 531.007214242 C 337.298648013 531.405331333 337.762876633 528.128522928 338.227105253 528.510051807 C 338.691333872 528.891580686 339.155562492 525.556232256 339.619791111 525.921172922 C 340.084019731 526.286113589 340.54824835 522.888539369 341.01247697 523.236891824 C 341.476705589 523.585244278 341.940934209 520.121224547 342.405162828 520.452988789 C 342.869391448 520.784753031 343.333620067 517.249440832 343.797848687 517.564616863 C 344.262077306 517.879792893 344.726305926 514.267598078 345.190534545 514.566185896 C 345.654763165 514.864773714 346.118991785 511.169217232 346.583220404 511.451216838 C 347.047449024 511.733216444 347.511677643 507.946745093 347.975906263 508.212156487 C 348.440134882 508.477567881 348.904363502 504.591315647 349.368592121 504.840138829 C 349.832820741 505.088962011 350.29704936 501.092438002 350.76127798 501.324672971 C 351.225506599 501.556907941 351.689735219 497.437581403 352.153963838 497.653228161 C 352.618192458 497.868874918 353.082421077 493.611612713 353.546649697 493.810671258 C 354.010878316 494.009729804 354.475106936 489.596016874 354.939335556 489.778487207 C 355.403564175 489.960957541 355.867792795 485.367788604 356.332021414 485.533670725 C 356.796250034 485.699552847 357.260478653 480.89780842 357.724707273 481.04710233 C 358.188935892 481.196396239 358.653164512 476.148375934 359.117393131 476.281081631 C 359.581621751 476.413787328 360.04585037 471.069295744 360.51007899 471.185413229 C 360.974307609 471.301530714 361.438536229 465.591320226 361.902764848 465.690849499 C 362.366993468 465.790378772 362.831222088 459.614374994 363.295450707 459.697316055 C 363.759679327 459.780257116 364.223907946 452.984373179 364.688136566 453.050726027 C 365.152365185 453.117078876 365.616593805 445.441244405 366.080822424 445.491009041 C 366.545051044 445.540773678 367.009279663 436.476832155 367.473508283 436.51000858 C 367.937736902 436.543185004 368.401965522 424.777183979 368.866194141 424.793772191 C 369.330422761 424.810360403 369.79465138 396.493485 370.25888 396.493485"
         style="fill:none;fill-opacity:1;stroke:#0091ff;stroke-width:5;stroke-opacity:1;stroke-miterlimit:4;stroke-dasharray:none" />
      <path
         style="fill:none;fill-opacity:1;stroke:#0091ff;stroke-width:5;stroke-opacity:1;stroke-miterlimit:4;stroke-dasharray:none"
         d=" M 232.38298 396.493485 C 232.84720862 398.135718 233.311437239 355.146494282 233.775665859 356.77213907 C 234.239894478 358.397783858 234.704123098 339.139327566 235.168351717 340.748384142 C 235.632580337 342.357440717 236.096808956 327.153816012 236.561037576 328.746284376 C 237.025266195 330.33875274 237.489494815 317.298171449 237.953723434 318.8740516 C 238.417952054 320.449931752 238.882180673 308.833749582 239.346409293 310.393041522 C 239.810637912 311.952333461 240.274866532 301.378866037 240.739095152 302.921569765 C 241.203323771 304.464273492 241.667552391 294.70512508 242.13178101 296.231240595 C 242.59600963 297.757356111 243.060238249 288.662653555 243.524466869 290.172180858 C 243.988695488 291.681708161 244.452924108 283.146623957 244.917152727 284.639563048 C 245.381381347 286.132502138 245.845609966 278.080192018 246.309838586 279.556542896 C 246.774067205 281.032893775 247.238295825 273.404960181 247.702524444 274.864722848 C 248.166753064 276.324485515 248.630981684 269.07526433 249.095210303 270.518438784 C 249.559438923 271.961613239 250.023667542 265.054559964 250.487896162 266.481146206 C 250.952124781 267.907732449 251.416353401 261.313034171 251.88058202 262.723032201 C 252.34481064 264.133030231 252.809039259 257.82596972 253.273267879 259.219379539 C 253.737496498 260.612789357 254.201725118 254.572590044 254.665953737 255.94941165 C 255.130182357 257.326233256 255.594410976 251.535222498 256.058639596 252.895455892 C 256.522868215 254.255689286 256.987096835 248.69867864 257.451325455 250.042323822 C 257.915554074 251.385969003 258.379782694 246.049786286 258.844011313 247.376843256 C 259.308239933 248.703900225 259.772468552 243.577030153 260.236697172 244.88749891 C 260.700925791 246.197967668 261.165154411 241.270271705 261.62938303 242.564152251 C 262.09361165 243.858032796 262.557840269 239.120527823 263.022068889 240.397820156 C 263.486297508 241.675112489 263.950526128 237.119793821 264.414754747 238.380497942 C 264.878983367 239.641202063 265.343211987 235.260900409 265.807440606 236.505016318 C 266.271669226 237.749132227 266.735897845 233.537396935 267.200126465 234.764924632 C 267.664355084 235.992452329 268.128583704 231.943455249 268.592812323 233.154394734 C 269.057040943 234.365334219 269.521269562 230.473789883 269.985498182 231.668141156 C 270.449726801 232.862492429 270.913955421 229.123591312 271.37818404 230.301354373 C 271.84241266 231.479117434 272.306641279 227.888469755 272.770869899 229.049644603 C 273.235098519 230.210819452 273.699327138 226.764407566 274.163555758 227.908994203 C 274.627784377 229.053580839 275.092012997 225.747718683 275.556241616 226.875717107 C 276.020470236 228.003715531 276.484698855 224.835013891 276.948927475 225.946424104 C 277.413156094 227.057834316 277.877384714 224.023170953 278.341613333 225.117992953 C 278.805841953 226.212814953 279.270070572 223.309308789 279.734299192 224.387542577 C 280.198527811 225.465776364 280.662756431 222.690765094 281.126985051 223.75241067 C 281.59121367 224.814056246 282.05544229 222.165076864 282.519670909 223.210134228 C 282.983899529 224.255191592 283.448128148 221.729963397 283.912356768 222.758432548 C 284.376585387 223.7869017 284.840814007 221.383311426 285.305042626 222.395192365 C 285.769271246 223.407073305 286.233499865 221.123162095 286.697728485 222.118454822 C 287.161957104 223.11374755 287.626185724 220.947699526 288.090414343 221.926404041 C 288.554642963 222.905108556 289.018871582 220.85524078 289.483100202 221.817357083 C 289.947328822 222.779473386 290.411557441 220.844227043 290.875786061 221.789755133 C 291.34001468 222.735283224 291.8042433 220.913215895 292.268471919 221.842155773 C 292.732700539 222.771095652 293.196929158 221.060874541 293.661157778 221.973226208 C 294.125386397 222.885577874 294.589615017 221.285973907 295.053843636 222.181737361 C 295.518072256 223.077500816 295.982300875 221.587383509 296.446529495 222.466558752 C 296.910758114 223.345733994 297.374986734 221.964067046 297.839215354 222.826654076 C 298.303443973 223.689241106 298.767672593 222.415078627 299.231901212 223.261077446 C 299.696129832 224.107076264 300.160358451 222.939559626 300.624587071 223.768970232 C 301.08881569 224.598380838 301.55304431 223.536736085 302.017272929 224.349558479 C 302.481501549 225.162380873 302.945730168 224.205916674 303.409958788 225.002150856 C 303.874187407 225.798385038 304.338416027 224.946491161 304.802644646 225.726137131 C 305.266873266 226.505783101 305.731101886 225.757929397 306.195330505 226.520987155 C 306.659559125 227.284044912 307.123787744 226.639780795 307.588016364 227.386250341 C 308.052244983 228.132719886 308.516473603 227.591674321 308.980702222 228.321555655 C 309.444930842 229.051436988 309.909159461 228.61331899 310.373388081 229.326612111 C 310.8376167 230.039905232 311.30184532 229.704504893 311.766073939 230.401209802 C 312.230302559 231.097914711 312.694531178 230.865104787 313.158759798 231.545221484 C 313.622988418 232.225338181 314.087217037 232.095076261 314.551445657 232.758604746 C 315.015674276 233.422133231 315.479902896 233.394464543 315.944131515 234.041404816 C 316.408360135 234.688345089 316.872588754 234.763405998 317.336817374 235.393758059 C 317.801045993 236.02411012 318.265274613 236.202132381 318.729503232 236.815896229 C 319.193731852 237.429660078 319.657960471 237.710975934 320.122189091 238.30815157 C 320.58641771 238.905327207 321.05064633 239.290375436 321.514874949 239.870962861 C 321.979103569 240.451550285 322.443332189 240.940883325 322.907560808 241.504882537 C 323.371789428 242.068881749 323.836018047 242.663174042 324.300246667 243.210585042 C 324.764475286 243.757996042 325.228703906 244.4580538 325.692932525 244.988876588 C 326.157161145 245.519699376 326.621389764 246.32647198 327.085618384 246.840706556 C 327.549847003 247.354941131 328.014075623 248.269534451 328.478304242 248.767180814 C 328.942532862 249.264827178 329.406761481 250.288519141 329.870990101 250.769577293 C 330.335218721 251.250635444 330.79944734 252.384894281 331.26367596 252.849364221 C 331.727904579 253.31383416 332.192133199 254.560339836 332.656361818 255.008221563 C 333.120590438 255.45610329 333.584819057 256.816772765 334.049047677 257.24806628 C 334.513276296 257.679359795 334.977504916 259.156376931 335.441733535 259.571082234 C 335.905962155 259.985787537 336.370190774 261.581638667 336.834419394 261.979755758 C 337.298648013 262.377872849 337.762876633 264.095389314 338.227105253 264.476918193 C 338.691333872 264.858447072 339.155562492 266.700856411 339.619791111 267.065797078 C 340.084019731 267.430737744 340.54824835 269.401725722 341.01247697 269.750078176 C 341.476705589 270.098430631 341.940934209 272.202216969 342.405162828 272.533981211 C 342.869391448 272.865745453 343.333620067 275.107177107 343.797848687 275.422353137 C 344.262077306 275.737529168 344.726305926 278.122196286 345.190534545 278.420784104 C 345.654763165 278.719371922 346.118991785 281.253753556 346.583220404 281.535753162 C 347.047449024 281.817752768 347.511677643 284.509402119 347.975906263 284.774813513 C 348.440134882 285.040224907 348.904363502 287.898007989 349.368592121 288.146831171 C 349.832820741 288.395654353 350.29704936 291.430062059 350.76127798 291.662297029 C 351.225506599 291.894531998 351.689735219 295.118095082 352.153963838 295.333741839 C 352.618192458 295.549388597 353.082421077 298.977240196 353.546649697 299.176298742 C 354.010878316 299.375357287 354.475106936 303.026012459 354.939335556 303.208482793 C 355.403564175 303.390953126 355.867792795 307.287417153 356.332021414 307.453299275 C 356.796250034 307.619181396 357.260478653 311.790573761 357.724707273 311.93986767 C 358.188935892 312.08916158 358.653164512 316.573182672 359.117393131 316.705888369 C 359.581621751 316.838594066 360.04585037 321.685439286 360.51007899 321.801556771 C 360.974307609 321.917674256 361.438536229 327.196591228 361.902764848 327.296120501 C 362.366993468 327.395649774 362.831222088 333.206712884 363.295450707 333.289653945 C 363.759679327 333.372595006 364.223907946 339.869891124 364.688136566 339.936243973 C 365.152365185 340.002596821 365.616593805 347.446196322 366.080822424 347.495960959 C 366.545051044 347.545725595 367.009279663 356.443784996 367.473508283 356.47696142 C 367.937736902 356.510137845 368.401965522 368.176609597 368.866194141 368.193197809 C 369.330422761 368.209786021 369.79465138 396.493485 370.25888 396.493485"
         title="sqrt(x*x*x - 9*x)"
         id="path4730" />
    </g>
    <path
       style="fill:none;stroke:#9f9f9f;stroke-width:5;stroke-linecap:butt;stroke-linejoin:miter;stroke-opacity:1;stroke-miterlimit:4;stroke-dasharray:none"
       d="m 437.99026,77.801312 0,380.055038"
       id="path4959"
       inkscape:connector-curvature="0"
       transform="translate(94.313262,125.27261)" />
    <path
       style="fill:none;stroke:#00ce00;stroke-width:8;stroke-linecap:round;stroke-linejoin:miter;stroke-opacity:1;stroke-miterlimit:4;stroke-dasharray:none;marker-start:none"
       d="M 144.83805,366.31871 437.99026,77.801312"
       id="path4777"
       inkscape:connector-curvature="0"
       transform="translate(94.313262,125.27261)" />
    <text
       xml:space="preserve"
       style="font-size:16px;font-style:normal;font-weight:normal;line-height:125%;letter-spacing:0px;word-spacing:0px;fill:#000000;fill-opacity:1;stroke:none;font-family:Sans"
       x="115.16994"
       y="645.69897"
       id="text4961"
       sodipodi:linespacing="125%"><tspan
         sodipodi:role="line"
         id="tspan4963"
         x="115.16994"
         y="645.69897"
         style="font-size:30px">y<tspan
   style="font-size:30px;baseline-shift:super"
   id="tspan4967">2</tspan> = x<tspan
   style="font-size:30px;baseline-shift:super"
   id="tspan4965">3</tspan> - 9x</tspan></text>
    <path
       sodipodi:type="arc"
       style="fill:none;stroke:#ff0000;stroke-width:5;stroke-linecap:round;stroke-miterlimit:4;stroke-opacity:1;stroke-dasharray:none"
       id="path4969"
       sodipodi:cx="46.927528"
       sodipodi:cy="339.08914"
       sodipodi:rx="2.8967609"
       sodipodi:ry="2.8967609"
       d="m 49.824289,339.08914 a 2.8967609,2.8967609 0 1 1 -5.793522,0 2.8967609,2.8967609 0 1 1 5.793522,0 z"
       transform="matrix(1.9298878,0,0,1.9298878,149.26822,-162.47032)" />
    <text
       xml:space="preserve"
       style="font-size:32px;font-style:normal;font-weight:normal;line-height:125%;letter-spacing:0px;word-spacing:0px;fill:#ff0000;fill-opacity:1;stroke:#ff0000;stroke-opacity:0;font-family:Sans"
       x="170.74554"
       y="510.20688"
       id="text4975"
       sodipodi:linespacing="125%"><tspan
         sodipodi:role="line"
         id="tspan4977"
         x="170.74554"
         y="510.20688"
         style="font-size:72px;font-weight:bold;fill:#ff0000;fill-opacity:1;stroke:#ff0000;stroke-opacity:0;-inkscape-font-specification:Sans Bold">P</tspan></text>
    <path
       sodipodi:type="arc"
       style="fill:#ffff00;stroke:#ffff00;stroke-width:5;stroke-linecap:round;stroke-miterlimit:4;stroke-opacity:1;stroke-dasharray:none;fill-opacity:1"
       id="path4969-9"
       sodipodi:cx="46.927528"
       sodipodi:cy="339.08914"
       sodipodi:rx="2.8967609"
       sodipodi:ry="2.8967609"
       d="m 49.824289,339.08914 a 2.8967609,2.8967609 0 1 1 -5.793522,0 2.8967609,2.8967609 0 1 1 5.793522,0 z"
       transform="matrix(1.9298878,0,0,1.9298878,277.99265,-295.04498)" />
    <text
       xml:space="preserve"
       style="font-size:32px;font-style:normal;font-weight:normal;line-height:125%;letter-spacing:0px;word-spacing:0px;fill:#ffff00;fill-opacity:1;stroke:#ff0000;stroke-opacity:0;font-family:Sans"
       x="385.21411"
       y="412.39334"
       id="text4975-6"
       sodipodi:linespacing="125%"><tspan
         sodipodi:role="line"
         id="tspan4977-5"
         x="385.21411"
         y="412.39334"
         style="font-size:72px;font-weight:bold;fill:#ffff00;fill-opacity:1;stroke:#ff0000;stroke-opacity:0;-inkscape-font-specification:Sans Bold">Q</tspan></text>
    <path
       sodipodi:type="arc"
       style="fill:#00ffff;fill-opacity:0.30107528000000000;stroke:#00ffff;stroke-width:5;stroke-linecap:round;stroke-miterlimit:4;stroke-opacity:0.74193549;stroke-dasharray:none"
       id="path4969-9-9"
       sodipodi:cx="46.927528"
       sodipodi:cy="339.08914"
       sodipodi:rx="2.8967609"
       sodipodi:ry="2.8967609"
       d="m 49.824289,339.08914 a 2.8967609,2.8967609 0 1 1 -5.793522,0 2.8967609,2.8967609 0 1 1 5.793522,0 z"
       transform="matrix(1.9298878,0,0,1.9298878,439.70127,-452.65402)" />
    <text
       xml:space="preserve"
       style="font-size:32px;font-style:normal;font-weight:normal;line-height:125%;letter-spacing:0px;word-spacing:0px;fill:#00ffff;fill-opacity:0.30107528;stroke:#ff0000;stroke-opacity:0;font-family:Sans"
       x="545.76404"
       y="223.49927"
       id="text4975-6-9"
       sodipodi:linespacing="125%"><tspan
         sodipodi:role="line"
         id="tspan4977-5-5"
         x="545.76404"
         y="223.49927"
         style="font-size:72px;font-weight:bold;fill:#00ffff;fill-opacity:0.30107528;stroke:#ff0000;stroke-opacity:0;-inkscape-font-specification:Sans Bold">-R</tspan></text>
    <path
       sodipodi:type="arc"
       style="fill:#00ffff;fill-opacity:1;stroke:#00ffff;stroke-width:5;stroke-linecap:round;stroke-miterlimit:4;stroke-opacity:1;stroke-dasharray:none"
       id="path4969-9-9-2"
       sodipodi:cx="46.927528"
       sodipodi:cy="339.08914"
       sodipodi:rx="2.8967609"
       sodipodi:ry="2.8967609"
       d="m 49.824289,339.08914 a 2.8967609,2.8967609 0 1 1 -5.793522,0 2.8967609,2.8967609 0 1 1 5.793522,0 z"
       transform="matrix(1.9298878,0,0,1.9298878,439.84278,-70.25631)" />
    <text
       xml:space="preserve"
       style="font-size:32px;font-style:normal;font-weight:normal;line-height:125%;letter-spacing:0px;word-spacing:0px;fill:#00ffff;fill-opacity:1;stroke:#ff0000;stroke-opacity:0;font-family:Sans"
       x="545.90558"
       y="605.89697"
       id="text4975-6-9-7"
       sodipodi:linespacing="125%"><tspan
         sodipodi:role="line"
         id="tspan4977-5-5-3"
         x="545.90558"
         y="605.89697"
         style="font-size:72px;font-weight:bold;fill:#00ffff;fill-opacity:1;stroke:#ff0000;stroke-opacity:0;-inkscape-font-specification:Sans Bold">R</tspan></text>
  </g>
</svg>
